<?xml version="1.0" encoding="UTF-8" standalone="no"?>
<svg
   xmlns:dc="http://purl.org/dc/elements/1.1/"
   xmlns:cc="http://creativecommons.org/ns#"
   xmlns:rdf="http://www.w3.org/1999/02/22-rdf-syntax-ns#"
   xmlns:svg="http://www.w3.org/2000/svg"
   xmlns="http://www.w3.org/2000/svg"
   width="210mm"
   height="210mm"
   viewBox="0 55 210 210"
   version="1.1"
   id="svg8">
  <g
     id="layer1">
    <path
       style="fill:#000000;stroke-width:0.249242"
       d="m 51.637881,256.3437 c 0,-0.13913 -0.351791,-0.25297 -0.781757,-0.25297 -1.660416,0 -6.50853,-2.13916 -7.596475,-3.35183 -0.218438,-0.24348 -0.527666,-0.44269 -0.687175,-0.44269 -0.476435,0 -4.686589,-4.54677 -4.686589,-5.0613 0,-0.13807 -0.110507,-0.25104 -0.245571,-0.25104 -0.135065,0 -0.245572,-0.17076 -0.245572,-0.37946 0,-0.20869 -0.110507,-0.37945 -0.245571,-0.37945 -0.135064,0 -0.245571,-0.17075 -0.245571,-0.37945 0,-0.2087 -0.110507,-0.37945 -0.245572,-0.37945 -0.135064,0 -0.245571,-0.22767 -0.245571,-0.50594 0,-0.27826 -0.110507,-0.50593 -0.245571,-0.50593 -0.135065,0 -0.245572,-0.34151 -0.245572,-0.75891 0,-0.4174 -0.110507,-0.7589 -0.245571,-0.7589 -0.135064,0 -0.245571,-0.22096 -0.245571,-0.49101 0,-0.27005 -0.0983,-0.55359 -0.218439,-0.63008 -0.232885,-0.14826 -0.384417,-0.91793 -0.773773,-3.93014 -0.384498,-2.97466 -0.201059,-56.47415 0.194105,-56.6098 0.16883,-0.058 0.306964,-0.27462 0.306964,-0.48148 0,-0.50785 69.596741,-72.18361 70.089861,-72.18361 0.21401,0 0.38911,-0.0958 0.38911,-0.21292 0,-0.27376 1.69498,-0.79895 2.5785,-0.79895 0.88352,0 2.5785,0.52519 2.5785,0.79895 0,0.11711 0.16421,0.21292 0.36491,0.21292 0.36612,0 2.35681,1.83384 4.50277,4.14799 0.63185,0.68137 2.14338,2.24154 3.35896,3.46705 1.21558,1.2255 2.41806,2.44597 2.67218,2.71214 0.39415,0.41285 4.65925,4.8109 6.08261,6.27223 23.02983,23.64405 53.49755,55.29719 53.49755,55.57899 0,0.20972 0.13813,0.42876 0.30696,0.48675 0.24321,0.0835 0.30697,6.15448 0.30697,29.2263 0,22.95942 -0.065,29.18776 -0.30697,29.43703 -0.16883,0.1739 -0.30696,0.57954 -0.30696,0.90143 0,0.56406 -0.0808,0.79896 -0.69837,2.02953 -0.15615,0.31116 -0.28392,0.79496 -0.28392,1.07512 0,0.28015 -0.1105,0.50937 -0.24557,0.50937 -0.13506,0 -0.24557,0.22767 -0.24557,0.50593 0,0.27827 -0.11051,0.50594 -0.24557,0.50594 -0.13506,0 -0.24557,0.17075 -0.24557,0.37945 0,0.2087 -0.11051,0.37945 -0.24557,0.37945 -0.13507,0 -0.24557,0.17076 -0.24557,0.37945 0,0.2087 -0.0918,0.37946 -0.20408,0.37946 -0.11224,0 -0.36088,0.31077 -0.55253,0.69061 -0.43665,0.86541 -4.03033,4.62173 -4.4216,4.62173 -0.15925,0 -0.46826,0.19921 -0.6867,0.44269 -1.08795,1.21267 -5.93606,3.35183 -7.59648,3.35183 -0.42996,0 -0.78175,0.11384 -0.78175,0.25297 0,0.16643 -6.38449,0.25297 -18.66231,0.25297 h -18.66231 l -0.0625,-26.87788 -0.0625,-26.87787 h -18.909 -18.908988 l -0.0625,26.87787 -0.0625,26.87788 h -18.66231 c -12.277827,0 -18.662311,-0.0865 -18.662311,-0.25297 z m -37.20406,-87.02107 c -0.0835,-0.13913 -0.415,-0.25297 -0.73671,-0.25297 -0.32172,0 -0.65324,-0.11383 -0.73672,-0.25296 -0.0835,-0.13914 -0.36626,-0.25297 -0.62842,-0.25297 -0.26216,0 -0.47665,-0.11384 -0.47665,-0.25297 0,-0.13913 -0.16503,-0.25297 -0.36673,-0.25297 -0.92335,0 -4.7902696,-4.73674 -4.7902696,-5.86779 0,-0.25103 -0.1105,-0.45641 -0.24557,-0.45641 -0.13506,0 -0.24557,-0.33479 -0.24557,-0.74398 0,-0.40918 -0.11051,-0.81433 -0.24557,-0.90032 -0.13507,-0.086 -0.24557,-1.17414 -0.24557,-2.41813 0,-1.33921 0.10017,-2.26178 0.24557,-2.26178 0.13506,0 0.24557,-0.39171 0.24557,-0.87046 0,-0.47875 0.11051,-0.94081 0.24557,-1.0268 0.13507,-0.086 0.24557,-0.3773 0.24557,-0.64735 0,-0.27006 0.11051,-0.49101 0.24557,-0.49101 0.13507,0 0.24558,-0.12178 0.24558,-0.27063 0,-0.14885 0.32417,-0.75599 0.72037,-1.3492 0.73335,-1.09799 78.0678306,-80.896392 80.1901606,-82.745058 0.63891,-0.556531 1.30797,-1.154168 1.48679,-1.328084 0.17883,-0.173915 0.44354,-0.31621 0.58825,-0.31621 0.14471,0 0.26311,-0.113835 0.26311,-0.252968 0,-0.139132 0.16576,-0.252968 0.36836,-0.252968 0.2026,0 0.36836,-0.100025 0.36836,-0.222278 0,-0.122253 0.33152,-0.363735 0.73671,-0.536627 0.40519,-0.172891 0.73672,-0.414374 0.73672,-0.536626 0,-0.122253 0.22101,-0.222278 0.49114,-0.222278 0.27013,0 0.49114,-0.113836 0.49114,-0.252968 0,-0.139133 0.19891,-0.252969 0.44203,-0.252969 0.24311,0 0.54701,-0.09338 0.67532,-0.207508 0.29804,-0.265097 3.14212,-1.440891 4.34661,-1.796968 0.50649,-0.149731 1.287888,-0.386073 1.736438,-0.525206 0.44854,-0.139132 1.3326,-0.252968 1.96457,-0.252968 0.63196,0 1.14903,-0.113836 1.14903,-0.252968 0,-0.158388 1.50952,-0.252968 4.03743,-0.252968 2.42673,0 4.09798,0.10092 4.18921,0.252968 0.0835,0.139132 0.60706,0.252968 1.16352,0.252968 0.55646,0 1.37874,0.113836 1.82729,0.252968 0.44855,0.139133 1.22994,0.375475 1.73643,0.525206 1.2045,0.356077 4.04858,1.531871 4.34662,1.796968 0.12831,0.114129 0.4322,0.207508 0.67532,0.207508 0.24311,0 0.44203,0.113836 0.44203,0.252969 0,0.139132 0.22101,0.252968 0.49114,0.252968 0.27013,0 0.49114,0.100025 0.49114,0.222278 0,0.122252 0.33152,0.363735 0.73672,0.536626 0.40519,0.172892 0.73671,0.414374 0.73671,0.536627 0,0.122253 0.16576,0.222278 0.36836,0.222278 0.20259,0 0.36835,0.113836 0.36835,0.252968 0,0.139133 0.16576,0.252968 0.36836,0.252968 0.2026,0 0.36836,0.113836 0.36836,0.252968 0,0.139133 0.11365,0.252969 0.25255,0.252969 0.35069,0 0.52811,0.177423 13.72309,13.723524 6.47137,6.643577 11.88636,12.079231 12.03331,12.079231 0.18659,0 0.26718,-2.289137 0.26718,-7.589045 0,-4.890719 0.0873,-7.589046 0.24557,-7.589046 0.13507,0 0.24558,-0.334789 0.24558,-0.743975 0,-0.409187 0.1105,-0.81433 0.24557,-0.900318 0.13506,-0.08599 0.24557,-0.377296 0.24557,-0.64735 0,-0.270054 0.11051,-0.491007 0.24557,-0.491007 0.13506,0 0.24557,-0.202541 0.24557,-0.450092 0,-0.24755 0.22102,-0.614187 0.49114,-0.814749 0.27013,-0.200562 0.49115,-0.5672 0.49115,-0.81475 0,-0.24755 0.11553,-0.450091 0.25673,-0.450091 0.1412,0 0.51409,-0.256131 0.82864,-0.569179 1.03108,-1.026157 1.4719,-1.330156 3.21213,-2.21515 1.56313,-0.794933 1.9502,-0.88254 4.26891,-0.966195 2.88596,-0.104119 4.3778,0.25001 6.2753,1.489615 0.62561,0.408705 1.19844,0.7431 1.27295,0.7431 0.28648,0 2.79433,2.868403 2.79433,3.196066 0,0.190019 0.11051,0.345488 0.24557,0.345488 0.13507,0 0.24557,0.227672 0.24557,0.505937 0,0.278265 0.11051,0.505936 0.24557,0.505936 0.13507,0 0.24558,0.204904 0.24558,0.455343 0,0.250438 0.0949,0.563486 0.21093,0.695662 0.64113,0.730466 0.77135,4.509359 0.77135,22.383954 v 18.504616 l 15.83144,16.30344 c 8.7073,8.96688 16.02459,16.64025 16.26066,17.05192 0.23607,0.41167 0.51589,0.74849 0.62184,0.74849 0.10594,0 0.19262,0.22767 0.19262,0.50594 0,0.27826 0.11051,0.50593 0.24557,0.50593 0.13507,0 0.24558,0.22767 0.24558,0.50594 0,0.27826 0.1105,0.50594 0.24557,0.50594 0.13506,0 0.24557,0.45534 0.24557,1.01187 0,0.55653 0.11051,1.01187 0.24557,1.01187 0.14648,0 0.24557,0.96971 0.24557,2.4032 0,1.43349 -0.0991,2.4032 -0.24557,2.4032 -0.13506,0 -0.24557,0.3415 -0.24557,0.7589 0,0.4174 -0.11051,0.75891 -0.24557,0.75891 -0.13507,0 -0.24557,0.23562 -0.24557,0.52359 0,0.28799 -0.34564,1.05638 -0.76808,1.70754 -0.95132,1.46641 -3.5346,4.09307 -4.02547,4.09307 -0.1999,0 -0.36345,0.11384 -0.36345,0.25297 0,0.13913 -0.22102,0.25297 -0.49115,0.25297 -0.27012,0 -0.49114,0.11383 -0.49114,0.25297 0,0.13913 -0.325,0.25296 -0.72222,0.25296 -0.39722,0 -0.79052,0.11384 -0.87399,0.25297 -0.0868,0.14467 -1.34836,0.25297 -2.94686,0.25297 -1.59849,0 -2.86006,-0.1083 -2.94685,-0.25297 -0.0835,-0.13913 -0.47678,-0.25297 -0.874,-0.25297 -0.39722,0 -0.72222,-0.11383 -0.72222,-0.25296 0,-0.13914 -0.22101,-0.25297 -0.49114,-0.25297 -0.27013,0 -0.49114,-0.11384 -0.49114,-0.25297 0,-0.13913 -0.16576,-0.25297 -0.36836,-0.25297 -0.2026,0 -0.36836,-0.11384 -0.36836,-0.25297 0,-0.13913 -0.16556,-0.25297 -0.36791,-0.25297 -0.20235,0 -18.32351,-18.4983 -40.26924,-41.10733 -21.94573,-22.60903 -40.0691,-41.107327 -40.27415,-41.107327 -0.20505,0 -0.37282,-0.113836 -0.37282,-0.252968 0,-0.139133 -0.32499,-0.252969 -0.72222,-0.252969 -0.39722,0 -0.79051,-0.113835 -0.87399,-0.252968 -0.19808,-0.330148 -2.82407,-0.330148 -2.82407,0 0,0.139133 -0.38677,0.252968 -0.8595,0.252968 -0.47272,0 -0.8595,0.113836 -0.8595,0.252969 0,0.139132 -0.16554,0.252968 -0.36788,0.252968 -0.20233,0 -18.323498,18.498297 -40.269268,41.107327 -21.945774,22.60903 -40.04476,41.10733 -40.219973,41.10733 -0.175212,0 -0.477866,0.22768 -0.672564,0.50594 -0.194697,0.27827 -0.544092,0.50594 -0.776433,0.50594 -0.232341,0 -0.490735,0.11383 -0.574209,0.25297 -0.08347,0.13913 -0.470249,0.25296 -0.8595,0.25296 -0.38925,0 -0.776025,0.11384 -0.8595,0.25297 -0.0868,0.14467 -1.348361,0.25297 -2.946852,0.25297 -1.5985,0 -2.86006,-0.1083 -2.94686,-0.25297 z"
       id="path847" />
  </g>
</svg>
