<?xml version="1.0" encoding="UTF-8" standalone="no"?>
<svg
   xmlns="http://www.w3.org/2000/svg"
   width="24"
   height="24"
   viewBox="0 0 24 24"
   version="1.1"
   id="svg4">
  <path
     id="rect835"
     style="fill:#000000;stroke-width:12.0567;fill-opacity:1"
     d="M 11.445312 0 C 10.644349 0 10 0.64434864 10 1.4453125 L 10 10 L 1.4453125 10 C 0.64434864 10 1.789733e-17 10.644349 0 11.445312 L 0 12.554688 C 0 13.355651 0.64434864 14 1.4453125 14 L 10 14 L 10 22.554688 C 10 23.355651 10.644349 24 11.445312 24 L 12.554688 24 C 13.355651 24 14 23.355651 14 22.554688 L 14 14 L 22.554688 14 C 23.355651 14 24 13.355651 24 12.554688 L 24 11.445312 C 24 10.644349 23.355651 10 22.554688 10 L 14 10 L 14 1.4453125 C 14 0.64434864 13.355651 1.789733e-17 12.554688 0 L 11.445312 0 z " />
</svg>
